<svg width="48" height="48" viewBox="0 0 48 48" fill="none" xmlns="http://www.w3.org/2000/svg">
<path d="M24 5.07324C18.6927 5.07324 15.3931 7.71694 14.0613 13.0242C16.049 10.3805 18.3747 9.38665 21.0184 10.0426C22.5291 10.4203 23.6223 11.5135 24.815 12.7261C26.763 14.7138 28.9694 16.9997 33.9387 16.9997C39.246 16.9997 42.5457 14.356 43.8775 9.04873C41.8897 11.6924 39.5641 12.6863 36.9204 12.0304C35.4097 11.6527 34.3363 10.5594 33.1238 9.34689C31.1758 7.35915 28.9694 5.07324 24 5.07324ZM14.0613 16.9997C8.754 16.9997 5.45435 19.6434 4.12256 24.9507C6.1103 22.307 8.43597 21.3131 11.0797 21.9691C12.5904 22.3467 13.6637 23.44 14.8763 24.6525C16.8242 26.6403 19.0306 28.9262 24 28.9262C29.3073 28.9262 32.6069 26.2825 33.9387 20.9752C31.951 23.6189 29.6253 24.6128 26.9816 23.9568C25.4709 23.5791 24.3976 22.4859 23.185 21.2734C21.237 19.2856 19.0306 16.9997 14.0613 16.9997Z" fill="white"></path>
<path d="M5.88071 37.4249H4.86447V39.392C4.86447 39.9165 5.20869 39.9084 5.88071 39.8755V40.6705C4.52025 40.8344 3.97931 40.4575 3.97931 39.392V37.4251H3.22534V36.5727H3.97931V35.4719L4.86447 35.2097V36.5727H5.88071V37.4249ZM9.75465 36.5727H10.6398V40.6705H9.75465V40.0804C9.44326 40.5149 8.95971 40.7771 8.32051 40.7771C7.2058 40.7771 6.27967 39.8346 6.27967 38.6216C6.27967 37.4005 7.2058 36.4662 8.3204 36.4662C8.95971 36.4662 9.44326 36.7284 9.75465 37.1546V36.5727ZM8.45974 39.9329C9.1973 39.9329 9.75465 39.3838 9.75465 38.6216C9.75465 37.8594 9.1973 37.3103 8.45974 37.3103C7.72218 37.3103 7.16483 37.8594 7.16483 38.6216C7.16483 39.3838 7.72218 39.9329 8.45974 39.9329ZM12.115 35.958C11.8035 35.958 11.5495 35.6958 11.5495 35.3926C11.5498 35.2427 11.6095 35.099 11.7155 34.993C11.8215 34.887 11.9651 34.8274 12.115 34.8271C12.2649 34.8274 12.4086 34.887 12.5146 34.993C12.6206 35.099 12.6803 35.2427 12.6805 35.3926C12.6805 35.6958 12.4264 35.958 12.115 35.958ZM11.6725 40.6705V36.5727H12.5575V40.6705H11.6725ZM13.582 40.6705V34.6877H14.4672V40.6705H13.582ZM20.2123 36.5727H21.1466L19.8598 40.6705H18.9911L18.1388 37.9086L17.2783 40.6705H16.4095L15.1228 36.5727H16.0571L16.8521 39.4003L17.7126 36.5727H18.5568L19.4091 39.4003L20.2123 36.5727ZM22.2448 35.9581C21.9334 35.9581 21.6793 35.6958 21.6793 35.3926C21.6796 35.2427 21.7393 35.099 21.8452 34.993C21.9512 34.887 22.0949 34.8274 22.2448 34.8271C22.3947 34.8274 22.5384 34.887 22.6444 34.993C22.7503 35.099 22.81 35.2427 22.8103 35.3926C22.8103 35.6958 22.5562 35.9581 22.2448 35.9581ZM21.8022 40.6704V36.5727H22.6874V40.6705L21.8022 40.6704ZM25.8673 36.466C26.7851 36.466 27.4409 37.0889 27.4409 38.1544V40.6704H26.5557V38.2446C26.5557 37.6218 26.1951 37.294 25.6378 37.294C25.0559 37.294 24.5969 37.6381 24.5969 38.4741V40.6705H23.7118V36.5727H24.5969V37.0973C24.8675 36.671 25.3099 36.466 25.8673 36.466ZM31.637 34.9336H32.5222V40.6705H31.637V40.0804C31.3256 40.5149 30.8421 40.7771 30.2029 40.7771C29.0882 40.7771 28.162 39.8346 28.162 38.6216C28.162 37.4005 29.0881 36.4662 30.2027 36.4662C30.8421 36.4662 31.3256 36.7284 31.637 37.1546V34.9336ZM30.3421 39.9329C31.0796 39.9329 31.637 39.3838 31.637 38.6216C31.637 37.8594 31.0796 37.3103 30.3421 37.3103C29.6045 37.3103 29.0472 37.8594 29.0472 38.6216C29.0472 39.3838 29.6045 39.9329 30.3421 39.9329ZM35.4889 40.7771C34.2514 40.7771 33.3253 39.8346 33.3253 38.6216C33.3253 37.4005 34.2514 36.4662 35.4889 36.4662C36.2921 36.4662 36.9887 36.8841 37.3166 37.5234L36.5544 37.966C36.3741 37.5808 35.9725 37.3349 35.4808 37.3349C34.7595 37.3349 34.2104 37.8841 34.2104 38.6216C34.2104 39.3592 34.7595 39.9084 35.4808 39.9084C35.9725 39.9084 36.3741 39.6543 36.5708 39.2772L37.333 39.7116C36.9887 40.3591 36.2921 40.7771 35.4889 40.7771ZM38.7917 37.7037C38.7917 38.4494 40.9964 37.9987 40.9964 39.5149C40.9964 40.3344 40.2834 40.7771 39.3982 40.7771C38.5787 40.7771 37.9886 40.4082 37.7264 39.8182L38.4886 39.3756C38.6197 39.7445 38.9475 39.9657 39.3982 39.9657C39.7917 39.9657 40.0949 39.8346 40.0949 39.5068C40.0949 38.7774 37.8903 39.1871 37.8903 37.7201C37.8903 36.9497 38.5541 36.4662 39.3901 36.4662C40.0621 36.4662 40.6193 36.7776 40.9063 37.3185L40.1606 37.7365C40.013 37.4169 39.7261 37.2694 39.3901 37.2694C39.0704 37.2694 38.7917 37.4086 38.7917 37.7037ZM42.57 37.7037C42.57 38.4494 44.7746 37.9987 44.7746 39.5149C44.7746 40.3344 44.0616 40.7771 43.1764 40.7771C42.3569 40.7771 41.7668 40.4082 41.5045 39.8182L42.2667 39.3756C42.3978 39.7445 42.7257 39.9657 43.1764 39.9657C43.5698 39.9657 43.873 39.8346 43.873 39.5068C43.873 38.7774 41.6685 39.1871 41.6685 37.7201C41.6685 36.9497 42.3323 36.4662 43.1683 36.4662C43.8402 36.4662 44.3976 36.7776 44.6845 37.3185L43.9387 37.7365C43.7911 37.4169 43.5042 37.2694 43.1683 37.2694C42.8486 37.2694 42.57 37.4086 42.57 37.7037Z" fill="white"></path>
</svg>